Adsworth-8PTG0XT1.ufo
<glyph name="G" format="2">
  <advance width="2025.0"/>
  <outline>
    <contour>
      <point x="1093.0" y="90.0" type="line" smooth="yes"/>
      <point x="1417.0" y="90.0"/>
      <point x="1767.0" y="359.0"/>
      <point x="1772.0" y="656.0" type="qcurve" smooth="yes"/>
      <point x="1770.0" y="595.0" type="line"/>
      <point x="1084.0" y="594.0" type="line"/>
      <point x="1084.0" y="730.0" type="line"/>
      <point x="1956.0" y="731.0" type="line"/>
      <point x="1955.0" y="628.0" type="line" smooth="yes"/>
      <point x="1949.0" y="298.0"/>
      <point x="1497.0" y="-31.0"/>
      <point x="1100.0" y="-31.0" type="qcurve" smooth="yes"/>
      <point x="1088.0" y="-31.0" type="line" smooth="yes"/>
      <point x="635.0" y="-31.0"/>
      <point x="146.0" y="395.0"/>
      <point x="146.0" y="741.0" type="qcurve" smooth="yes"/>
      <point x="146.0" y="754.0" type="line" smooth="yes"/>
      <point x="146.0" y="1126.0"/>
      <point x="667.0" y="1530.0"/>
      <point x="1071.0" y="1530.0" type="qcurve" smooth="yes"/>
      <point x="1085.0" y="1530.0" type="line" smooth="yes"/>
      <point x="1462.0" y="1530.0"/>
      <point x="1887.0" y="1246.0"/>
      <point x="1902.0" y="1018.0" type="qcurve" smooth="yes"/>
      <point x="1905.0" y="986.0" type="line"/>
      <point x="1737.0" y="986.0" type="line"/>
      <point x="1737.0" y="980.0" type="line" smooth="yes"/>
      <point x="1741.0" y="1163.0"/>
      <point x="1390.0" y="1386.0"/>
      <point x="1098.0" y="1386.0" type="qcurve" smooth="yes"/>
      <point x="1087.0" y="1386.0" type="line" smooth="yes"/>
      <point x="778.0" y="1386.0"/>
      <point x="347.0" y="1081.0"/>
      <point x="347.0" y="794.0" type="qcurve" smooth="yes"/>
      <point x="347.0" y="713.0" type="line" smooth="yes"/>
      <point x="347.0" y="423.0"/>
      <point x="732.0" y="90.0"/>
      <point x="1087.0" y="90.0" type="qcurve" smooth="yes"/>
    </contour>
  </outline>
</glyph>
<glyph name="I" format="2">
  <advance width="846"/>
  <outline>
    <contour>
      <point x="337" y="0" type="line"/>
      <point x="337" y="1500" type="line"/>
      <point x="531" y="1500" type="line"/>
      <point x="531" y="0" type="line"/>
    </contour>
    <contour>
      <point x="558" y="0" type="line"/>
      <point x="288" y="0" type="line"/>
      <point x="288" y="125" type="line"/>
      <point x="558" y="125" type="line"/>
    </contour>
    <contour>
      <point x="558" y="1375" type="line"/>
      <point x="288" y="1375" type="line"/>
      <point x="288" y="1500" type="line"/>
      <point x="558" y="1500" type="line"/>
    </contour>
  </outline>
</glyph>
<glyph name="J" format="2">
  <advance width="1455.0"/>
  <outline>
    <contour>
      <point x="1194.0" y="486.0" type="line" smooth="yes"/>
      <point x="1194.0" y="163.0"/>
      <point x="857.0" y="-32.0"/>
      <point x="600.0" y="-32.0" type="qcurve" smooth="yes"/>
      <point x="588.0" y="-32.0" type="line" smooth="yes"/>
      <point x="297.0" y="-32.0"/>
      <point x="20.0" y="184.0"/>
      <point x="20.0" y="379.0" type="qcurve" smooth="yes"/>
      <point x="20.0" y="464.0" type="line"/>
      <point x="208.0" y="463.0" type="line"/>
      <point x="208.0" y="379.0" type="line" smooth="yes"/>
      <point x="208.0" y="245.0"/>
      <point x="407.0" y="87.0"/>
      <point x="584.0" y="87.0" type="qcurve" smooth="yes"/>
      <point x="591.0" y="87.0" type="line" smooth="yes"/>
      <point x="776.0" y="87.0"/>
      <point x="994.0" y="252.0"/>
      <point x="994.0" y="403.0" type="qcurve" smooth="yes"/>
      <point x="993.0" y="1500.0" type="line"/>
      <point x="1194.0" y="1500.0" type="line"/>
    </contour>
  </outline>
</glyph>
<glyph name="K" format="2">
  <advance width="1521"/>
  <outline>
    <contour>
      <point x="288" y="0" type="line"/>
      <point x="288" y="1500" type="line"/>
      <point x="483" y="1500" type="line"/>
      <point x="483" y="663" type="line"/>
      <point x="708" y="927" type="line"/>
      <point x="1262" y="1500" type="line"/>
      <point x="1506" y="1500" type="line"/>
      <point x="744" y="726" type="line"/>
      <point x="749" y="740" type="line"/>
      <point x="483" y="429" type="line"/>
      <point x="483" y="0" type="line"/>
    </contour>
    <contour>
      <point x="557" y="777" type="line"/>
      <point x="709" y="879" type="line"/>
      <point x="1604" y="0" type="line"/>
      <point x="1338" y="0" type="line"/>
    </contour>
  </outline>
</glyph>
<glyph name="O" format="2">
  <advance width="2162"/>
  <outline>
    <contour>
      <point x="1064.0" y="-32.0" type="line" smooth="yes"/>
      <point x="629.0" y="-32.0"/>
      <point x="146.0" y="371.0"/>
      <point x="146.0" y="734.0" type="qcurve" smooth="yes"/>
      <point x="146.0" y="752.0" type="line" smooth="yes"/>
      <point x="146.0" y="1110.0"/>
      <point x="642.0" y="1528.0"/>
      <point x="1071.0" y="1528.0" type="qcurve" smooth="yes"/>
      <point x="1082.0" y="1528.0" type="line" smooth="yes"/>
      <point x="1499.0" y="1528.0"/>
      <point x="2017.0" y="1127.0"/>
      <point x="2017.0" y="753.0" type="qcurve" smooth="yes"/>
      <point x="2017.0" y="738.0" type="line" smooth="yes"/>
      <point x="2017.0" y="368.0"/>
      <point x="1502.0" y="-32.0"/>
      <point x="1076.0" y="-32.0" type="qcurve" smooth="yes"/>
    </contour>
    <contour>
      <point x="1083.0" y="114.0" type="line" smooth="yes"/>
      <point x="1411" y="114"/>
      <point x="1815.0" y="415.0"/>
      <point x="1815.0" y="743.0" type="qcurve" smooth="yes"/>
      <point x="1815.0" y="727.0" type="line" smooth="yes"/>
      <point x="1815.0" y="1055.0"/>
      <point x="1413.0" y="1384.0"/>
      <point x="1083.0" y="1384.0" type="qcurve" smooth="yes"/>
      <point x="1071.0" y="1384.0" type="line" smooth="yes"/>
      <point x="736.0" y="1384.0"/>
      <point x="347.0" y="1051.0"/>
      <point x="347.0" y="724.0" type="qcurve" smooth="yes"/>
      <point x="347.0" y="739.0" type="line" smooth="yes"/>
      <point x="347.0" y="416.0"/>
      <point x="710" y="114"/>
      <point x="1071.0" y="114.0" type="qcurve" smooth="yes"/>
    </contour>
  </outline>
</glyph>
<glyph name="P" format="2">
  <advance width="1551.0"/>
  <outline>
    <contour>
      <point x="288.0" y="0.0" type="line"/>
      <point x="288.0" y="1500.0" type="line"/>
      <point x="485.0" y="1500.0" type="line"/>
      <point x="485.0" y="0.0" type="line"/>
    </contour>
    <contour>
      <point x="972.0" y="537.0" type="qcurve" smooth="yes"/>
      <point x="404.0" y="537.0" type="line"/>
      <point x="404.0" y="677.0" type="line"/>
      <point x="858.0" y="677.0" type="line" smooth="yes"/>
      <point x="1056.0" y="677.0"/>
      <point x="1284.0" y="832.0"/>
      <point x="1284.0" y="1035.0" type="qcurve" smooth="yes"/>
      <point x="1284.0" y="1043.0" type="line" smooth="yes"/>
      <point x="1284.0" y="1218.0"/>
      <point x="1065.0" y="1366.0"/>
      <point x="911.0" y="1366.0" type="qcurve" smooth="yes"/>
      <point x="404.0" y="1366.0" type="line"/>
      <point x="404.0" y="1500.0" type="line"/>
      <point x="1011.0" y="1500.0" type="line" smooth="yes"/>
      <point x="1198.0" y="1500.0"/>
      <point x="1475.0" y="1264.0"/>
      <point x="1475.0" y="1044.0" type="qcurve" smooth="yes"/>
      <point x="1475.0" y="1037.0" type="line" smooth="yes"/>
      <point x="1475.0" y="768.0"/>
      <point x="1216.0" y="536.0"/>
    </contour>
  </outline>
</glyph>
<glyph name="R" format="2">
  <advance width="1619.0"/>
  <outline>
    <contour>
      <point x="288.0" y="0.0" type="line"/>
      <point x="288.0" y="1500.0" type="line"/>
      <point x="482.0" y="1500.0" type="line"/>
      <point x="482.0" y="0.0" type="line"/>
    </contour>
    <contour>
      <point x="985.0" y="620.0" type="qcurve" smooth="yes"/>
      <point x="409.0" y="620.0" type="line"/>
      <point x="409.0" y="772.0" type="line"/>
      <point x="894.0" y="772.0" type="line" smooth="yes"/>
      <point x="1111.0" y="772.0"/>
      <point x="1364.0" y="916.0"/>
      <point x="1364.0" y="1079.0" type="qcurve" smooth="yes"/>
      <point x="1364.0" y="1096.0" type="line" smooth="yes"/>
      <point x="1364.0" y="1235.0"/>
      <point x="1127.0" y="1357.0"/>
      <point x="897.0" y="1357.0" type="qcurve" smooth="yes"/>
      <point x="409.0" y="1357.0" type="line"/>
      <point x="409.0" y="1500.0" type="line"/>
      <point x="980.0" y="1500.0" type="line" smooth="yes"/>
      <point x="1248.0" y="1500.0"/>
      <point x="1545.0" y="1306.0"/>
      <point x="1545.0" y="1092.0" type="qcurve" smooth="yes"/>
      <point x="1545.0" y="1075.0" type="line" smooth="yes"/>
      <point x="1545.0" y="832.0"/>
      <point x="1225.0" y="620.0"/>
    </contour>
    <contour>
      <point x="1129.0" y="725.0" type="line"/>
      <point x="1636.0" y="0.0" type="line"/>
      <point x="1437.0" y="0.0" type="line"/>
      <point x="941.0" y="710.0" type="line"/>
    </contour>
  </outline>
</glyph>
<glyph name="S" format="2">
  <advance width="1659.0"/>
  <outline>
    <contour>
      <point x="1415.0" y="404.0" type="line" smooth="yes"/>
      <point x="1415.0" y="518.0"/>
      <point x="1159.0" y="677.0"/>
      <point x="788.0" y="726.0" type="qcurve" smooth="yes"/>
      <point x="397.0" y="772.0"/>
      <point x="105.0" y="961.0"/>
      <point x="105.0" y="1138.0" type="qcurve" smooth="yes"/>
      <point x="105.0" y="1163.0" type="line" smooth="yes"/>
      <point x="105.0" y="1311.0"/>
      <point x="448.0" y="1530.0"/>
      <point x="806.0" y="1530.0" type="qcurve" smooth="yes"/>
      <point x="818.0" y="1530.0" type="line" smooth="yes"/>
      <point x="1201.0" y="1530.0"/>
      <point x="1552.0" y="1313.0"/>
      <point x="1531.0" y="1119.0" type="qcurve" smooth="yes"/>
      <point x="1531.0" y="1076.0" type="line"/>
      <point x="1357.0" y="1077.0" type="line"/>
      <point x="1357.0" y="1132.0" type="line" smooth="yes"/>
      <point x="1357.0" y="1243.0"/>
      <point x="1128.0" y="1376.0"/>
      <point x="822.0" y="1376.0" type="qcurve" smooth="yes"/>
      <point x="810.0" y="1376.0" type="line" smooth="yes"/>
      <point x="537.0" y="1376.0"/>
      <point x="287.0" y="1225.0"/>
      <point x="287.0" y="1143.0" type="qcurve" smooth="yes"/>
      <point x="287.0" y="1109.0" type="line" smooth="yes"/>
      <point x="287.0" y="1039.0"/>
      <point x="510.0" y="920.0"/>
      <point x="891.0" y="884.0" type="qcurve" smooth="yes"/>
      <point x="1300.0" y="844.0"/>
      <point x="1593.0" y="601.0"/>
      <point x="1593.0" y="408.0" type="qcurve" smooth="yes"/>
      <point x="1593.0" y="384.0" type="line" smooth="yes"/>
      <point x="1593.0" y="198.0"/>
      <point x="1216.0" y="-33.0"/>
      <point x="837.0" y="-33.0" type="qcurve" smooth="yes"/>
      <point x="832.0" y="-33.0" type="line" smooth="yes"/>
      <point x="425.0" y="-33.0"/>
      <point x="65.0" y="221.0"/>
      <point x="67.0" y="396.0" type="qcurve" smooth="yes"/>
      <point x="67.0" y="476.0" type="line"/>
      <point x="225.0" y="476.0" type="line"/>
      <point x="225.0" y="401.0" type="line" smooth="yes"/>
      <point x="225.0" y="279.0"/>
      <point x="489.0" y="92.0"/>
      <point x="829.0" y="92.0" type="qcurve" smooth="yes"/>
      <point x="837.0" y="92.0" type="line" smooth="yes"/>
      <point x="1171.0" y="92.0"/>
      <point x="1415.0" y="310.0"/>
      <point x="1415.0" y="389.0" type="qcurve" smooth="yes"/>
    </contour>
  </outline>
</glyph>
<glyph name="V" format="2">
  <advance width="1661.0"/>
  <outline>
    <contour>
      <point x="716.0" y="0.0" type="line"/>
      <point x="-20.0" y="1500.0" type="line"/>
      <point x="211.0" y="1500.0" type="line"/>
      <point x="845.0" y="232.0" type="line"/>
      <point x="1479.0" y="1500.0" type="line"/>
      <point x="1691.0" y="1500.0" type="line"/>
      <point x="942.0" y="0.0" type="line"/>
    </contour>
  </outline>
</glyph>
<glyph name="a" format="2">
  <advance width="1576.0"/>
  <outline>
    <contour>
      <point x="161.0" y="977.0" type="line"/>
      <point x="216.0" y="989.0"/>
      <point x="543.0" y="1081.0"/>
      <point x="758.0" y="1081.0" type="qcurve" smooth="yes"/>
      <point x="1103.0" y="1081.0"/>
      <point x="1351.0" y="866.0"/>
      <point x="1356.0" y="642.0" type="qcurve" smooth="yes"/>
      <point x="1360.0" y="1.0" type="line"/>
      <point x="1188.0" y="1.0" type="line"/>
      <point x="1178.0" y="694.0" type="line" smooth="yes"/>
      <point x="1177.0" y="814.0"/>
      <point x="987.0" y="986.0"/>
      <point x="763.0" y="986.0" type="qcurve" smooth="yes"/>
      <point x="598.0" y="986.0"/>
      <point x="264.0" y="911.0"/>
      <point x="183.0" y="867.0" type="qcurve"/>
    </contour>
    <contour>
      <point x="1335.0" y="300.0" type="line"/>
      <point x="1280.0" y="190.0"/>
      <point x="876.0" y="-22.0"/>
      <point x="668.0" y="-22.0" type="qcurve" smooth="yes"/>
      <point x="392.0" y="-22.0"/>
      <point x="79.0" y="151.0"/>
      <point x="79.0" y="308.0" type="qcurve" smooth="yes"/>
      <point x="79.0" y="444.0"/>
      <point x="381.0" y="639.0"/>
      <point x="697.0" y="639.0" type="qcurve" smooth="yes"/>
      <point x="941.0" y="639.0"/>
      <point x="1243.0" y="559.0"/>
      <point x="1337.0" y="486.0" type="qcurve"/>
      <point x="1337.0" y="486.0" type="line"/>
      <point x="1234.0" y="514.0"/>
      <point x="840.0" y="561.0"/>
      <point x="753.0" y="561.0" type="qcurve" smooth="yes"/>
      <point x="559.0" y="561.0"/>
      <point x="269.0" y="433.0"/>
      <point x="269.0" y="308.0" type="qcurve" smooth="yes"/>
      <point x="269.0" y="172.0"/>
      <point x="518.0" y="52.0"/>
      <point x="740.0" y="52.0" type="qcurve" smooth="yes"/>
      <point x="881.0" y="52.0"/>
      <point x="1199.0" y="153.0"/>
      <point x="1335.0" y="311.0" type="qcurve"/>
    </contour>
  </outline>
</glyph>
<glyph name="asciicircum" format="2">
  <advance width="1736.0"/>
  <outline>
    <contour>
      <point x="940.0" y="1513.0" type="line"/>
      <point x="1516.0" y="833.0" type="line"/>
      <point x="1334.0" y="833.0" type="line"/>
      <point x="868.0" y="1390.0" type="line"/>
      <point x="404.0" y="833.0" type="line"/>
      <point x="220.0" y="833.0" type="line"/>
      <point x="800.0" y="1513.0" type="line"/>
    </contour>
  </outline>
</glyph>
<glyph name="at" format="2">
  <advance width="2168.0"/>
  <outline>
    <contour>
      <point x="1354.0" y="689.0" type="qcurve" smooth="yes"/>
      <point x="1349.0" y="660.0" type="line" smooth="yes"/>
      <point x="1314.0" y="455.0"/>
      <point x="1050.0" y="251.0"/>
      <point x="890.0" y="251.0" type="qcurve" smooth="yes"/>
      <point x="884.0" y="251.0" type="line" smooth="yes"/>
      <point x="709.0" y="251.0"/>
      <point x="541.0" y="541.0"/>
      <point x="589.0" y="741.0" type="qcurve" smooth="yes"/>
      <point x="596.0" y="770.0" type="line" smooth="yes"/>
      <point x="639.0" y="950.0"/>
      <point x="851.0" y="1121.0"/>
      <point x="1029.0" y="1121.0" type="qcurve" smooth="yes"/>
      <point x="1036.0" y="1121.0" type="line" smooth="yes"/>
      <point x="1194.0" y="1121.0"/>
      <point x="1386.0" y="875.0"/>
    </contour>
    <contour>
      <point x="1270.0" y="664.0" type="line" smooth="yes"/>
      <point x="1300.0" y="820.0"/>
      <point x="1156.0" y="1022.0"/>
      <point x="1032.0" y="1022.0" type="qcurve" smooth="yes"/>
      <point x="1028.0" y="1022.0" type="line" smooth="yes"/>
      <point x="954.0" y="1022.0"/>
      <point x="804.0" y="913.0"/>
      <point x="767.0" y="763.0" type="qcurve" smooth="yes"/>
      <point x="762.0" y="743.0" type="line" smooth="yes"/>
      <point x="716.0" y="557.0"/>
      <point x="821.0" y="345.0"/>
      <point x="961.0" y="345.0" type="qcurve" smooth="yes"/>
      <point x="965.0" y="345.0" type="line" smooth="yes"/>
      <point x="1070.0" y="345.0"/>
      <point x="1240.0" y="495.0"/>
      <point x="1267.0" y="646.0" type="qcurve" smooth="yes"/>
    </contour>
    <contour>
      <point x="1249.0" y="558.0" type="qcurve" smooth="yes"/>
      <point x="1377.0" y="1113.0" type="line"/>
      <point x="1538.0" y="1113.0" type="line"/>
      <point x="1432.0" y="516.0" type="line" smooth="yes"/>
      <point x="1421.0" y="456.0"/>
      <point x="1476.0" y="365.0"/>
      <point x="1533.0" y="365.0" type="qcurve" smooth="yes"/>
      <point x="1729.0" y="365.0"/>
      <point x="2001.0" y="598.0"/>
      <point x="2001.0" y="811.0" type="qcurve" smooth="yes"/>
      <point x="2001.0" y="1106.0"/>
      <point x="1506.0" y="1464.0"/>
      <point x="1090.0" y="1464.0" type="qcurve" smooth="yes"/>
      <point x="687.0" y="1464.0"/>
      <point x="140.0" y="1001.0"/>
      <point x="140.0" y="675.0" type="qcurve" smooth="yes"/>
      <point x="140.0" y="297.0"/>
      <point x="712.0" y="-112.0"/>
      <point x="1072.0" y="-112.0" type="qcurve" smooth="yes"/>
      <point x="1338.0" y="-112.0"/>
      <point x="1660.0" y="13.0"/>
      <point x="1727.0" y="89.0" type="qcurve"/>
      <point x="1774.0" y="34.0" type="line"/>
      <point x="1696.0" y="-47.0"/>
      <point x="1365.0" y="-182.0"/>
      <point x="1067.0" y="-182.0" type="qcurve" smooth="yes"/>
      <point x="672.0" y="-182.0"/>
      <point x="50.0" y="282.0"/>
      <point x="50.0" y="675.0" type="qcurve" smooth="yes"/>
      <point x="50.0" y="1057.0"/>
      <point x="644.0" y="1529.0"/>
      <point x="1090.0" y="1529.0" type="qcurve" smooth="yes"/>
      <point x="1575.0" y="1529.0"/>
      <point x="2091.0" y="1130.0"/>
      <point x="2091.0" y="830.0" type="qcurve" smooth="yes"/>
      <point x="2091.0" y="563.0"/>
      <point x="1688.0" y="269.0"/>
      <point x="1428.0" y="269.0" type="qcurve" smooth="yes"/>
      <point x="1289.0" y="269.0"/>
      <point x="1238.0" y="449.0"/>
    </contour>
  </outline>
</glyph>
<glyph name="bracketleft" format="2">
  <advance width="1040.0"/>
  <outline>
    <contour>
      <point x="264.0" y="-280.0" type="line"/>
      <point x="264.0" y="1500.0" type="line"/>
      <point x="444.0" y="1500.0" type="line"/>
      <point x="444.0" y="-280.0" type="line"/>
    </contour>
    <contour>
      <point x="1046.0" y="-280.0" type="line"/>
      <point x="389.0" y="-280.0" type="line"/>
      <point x="389.0" y="-142.0" type="line"/>
      <point x="1046.0" y="-142.0" type="line"/>
    </contour>
    <contour>
      <point x="1046.0" y="1362.0" type="line"/>
      <point x="384.0" y="1362.0" type="line"/>
      <point x="384.0" y="1500.0" type="line"/>
      <point x="1046.0" y="1500.0" type="line"/>
    </contour>
  </outline>
</glyph>
<glyph name="bracketright" format="2">
  <advance width="1040.0"/>
  <outline>
    <contour>
      <point x="776.0" y="-280.0" type="line"/>
      <point x="596.0" y="-280.0" type="line"/>
      <point x="596.0" y="1500.0" type="line"/>
      <point x="776.0" y="1500.0" type="line"/>
    </contour>
    <contour>
      <point x="-6.0" y="-280.0" type="line"/>
      <point x="-6.0" y="-142.0" type="line"/>
      <point x="651.0" y="-142.0" type="line"/>
      <point x="651.0" y="-280.0" type="line"/>
    </contour>
    <contour>
      <point x="-6.0" y="1362.0" type="line"/>
      <point x="-6.0" y="1500.0" type="line"/>
      <point x="656.0" y="1500.0" type="line"/>
      <point x="656.0" y="1362.0" type="line"/>
    </contour>
  </outline>
</glyph>
<glyph name="c" format="2">
  <advance width="1603.0"/>
  <outline>
    <contour>
      <point x="1557.0" y="378.0" type="line"/>
      <point x="1553.0" y="351.0" type="line" smooth="yes"/>
      <point x="1527.0" y="203.0"/>
      <point x="1222.0" y="-25.0"/>
      <point x="877.0" y="-25.0" type="qcurve" smooth="yes"/>
      <point x="866.0" y="-25.0" type="line" smooth="yes"/>
      <point x="505.0" y="-25.0"/>
      <point x="118.0" y="249.0"/>
      <point x="118.0" y="513.0" type="qcurve" smooth="yes"/>
      <point x="118.0" y="524.0" type="line" smooth="yes"/>
      <point x="118.0" y="795.0"/>
      <point x="512.0" y="1082.0"/>
      <point x="859.0" y="1082.0" type="qcurve" smooth="yes"/>
      <point x="869.0" y="1082.0" type="line" smooth="yes"/>
      <point x="1215.0" y="1082.0"/>
      <point x="1538.0" y="855.0"/>
      <point x="1553.0" y="682.0" type="qcurve" smooth="yes"/>
      <point x="1555.0" y="654.0" type="line"/>
      <point x="1390.0" y="655.0" type="line"/>
      <point x="1387.0" y="683.0" type="line" smooth="yes"/>
      <point x="1375.0" y="796.0"/>
      <point x="1146.0" y="971.0"/>
      <point x="876.0" y="971.0" type="qcurve" smooth="yes"/>
      <point x="872.0" y="971.0" type="line" smooth="yes"/>
      <point x="583.0" y="971.0"/>
      <point x="316.0" y="765.0"/>
      <point x="316.0" y="560.0" type="qcurve" smooth="yes"/>
      <point x="316.0" y="485.0" type="line" smooth="yes"/>
      <point x="316.0" y="291.0"/>
      <point x="585.0" y="90.0"/>
      <point x="872.0" y="90.0" type="qcurve" smooth="yes"/>
      <point x="886.0" y="90.0" type="line" smooth="yes"/>
      <point x="1144.0" y="90.0"/>
      <point x="1371.0" y="261.0"/>
      <point x="1391.0" y="364.0" type="qcurve" smooth="yes"/>
      <point x="1396.0" y="380.0" type="line"/>
    </contour>
  </outline>
</glyph>
<glyph name="colon" format="2">
  <advance width="1080.0"/>
  <outline>
    <contour>
      <point x="539.0" y="-10.0" type="line" smooth="yes"/>
      <point x="585.0" y="-10.0"/>
      <point x="649.0" y="80.0"/>
      <point x="649.0" y="147.0" type="qcurve" smooth="yes"/>
      <point x="649.0" y="179.0" type="line" smooth="yes"/>
      <point x="649.0" y="246.0"/>
      <point x="588.0" y="338.0"/>
      <point x="540.0" y="338.0" type="qcurve" smooth="yes"/>
      <point x="536.0" y="338.0" type="line" smooth="yes"/>
      <point x="492.0" y="338.0"/>
      <point x="431.0" y="246.0"/>
      <point x="431.0" y="179.0" type="qcurve" smooth="yes"/>
      <point x="431.0" y="147.0" type="line" smooth="yes"/>
      <point x="431.0" y="79.0"/>
      <point x="490.0" y="-10.0"/>
      <point x="536.0" y="-10.0" type="qcurve" smooth="yes"/>
    </contour>
    <contour>
      <point x="539.0" y="643.0" type="line" smooth="yes"/>
      <point x="585.0" y="643.0"/>
      <point x="649.0" y="733.0"/>
      <point x="649.0" y="800.0" type="qcurve" smooth="yes"/>
      <point x="649.0" y="832.0" type="line" smooth="yes"/>
      <point x="649.0" y="899.0"/>
      <point x="588.0" y="991.0"/>
      <point x="540.0" y="991.0" type="qcurve" smooth="yes"/>
      <point x="536.0" y="991.0" type="line" smooth="yes"/>
      <point x="492.0" y="991.0"/>
      <point x="431.0" y="899.0"/>
      <point x="431.0" y="832.0" type="qcurve" smooth="yes"/>
      <point x="431.0" y="800.0" type="line" smooth="yes"/>
      <point x="431.0" y="732.0"/>
      <point x="490.0" y="643.0"/>
      <point x="536.0" y="643.0" type="qcurve" smooth="yes"/>
    </contour>
  </outline>
</glyph>
<glyph name="dollar" format="2">
  <advance width="1660.0"/>
  <outline>
    <contour>
      <point x="1381.0" y="396.0" type="line" smooth="yes"/>
      <point x="1381.0" y="532.0"/>
      <point x="1135.0" y="671.0"/>
      <point x="794.0" y="723.0" type="qcurve" smooth="yes"/>
      <point x="455.0" y="773.0"/>
      <point x="137.0" y="943.0"/>
      <point x="137.0" y="1120.0" type="qcurve" smooth="yes"/>
      <point x="137.0" y="1135.0" type="line" smooth="yes"/>
      <point x="137.0" y="1305.0"/>
      <point x="501.0" y="1524.0"/>
      <point x="808.0" y="1524.0" type="qcurve" smooth="yes"/>
      <point x="819.0" y="1524.0" type="line" smooth="yes"/>
      <point x="1151.0" y="1524.0"/>
      <point x="1492.0" y="1307.0"/>
      <point x="1487.0" y="1091.0" type="qcurve" smooth="yes"/>
      <point x="1487.0" y="1058.0" type="line"/>
      <point x="1316.0" y="1058.0" type="line"/>
      <point x="1316.0" y="1124.0" type="line" smooth="yes"/>
      <point x="1316.0" y="1257.0"/>
      <point x="1084.0" y="1390.0"/>
      <point x="823.0" y="1390.0" type="qcurve" smooth="yes"/>
      <point x="791.0" y="1390.0" type="line" smooth="yes"/>
      <point x="564.0" y="1390.0"/>
      <point x="316.0" y="1239.0"/>
      <point x="316.0" y="1135.0" type="qcurve" smooth="yes"/>
      <point x="316.0" y="1102.0" type="line" smooth="yes"/>
      <point x="316.0" y="1039.0"/>
      <point x="527.0" y="918.0"/>
      <point x="878.0" y="878.0" type="qcurve" smooth="yes"/>
      <point x="1238.0" y="840.0"/>
      <point x="1556.0" y="591.0"/>
      <point x="1556.0" y="408.0" type="qcurve" smooth="yes"/>
      <point x="1556.0" y="384.0" type="line" smooth="yes"/>
      <point x="1556.0" y="198.0"/>
      <point x="1163.0" y="-33.0"/>
      <point x="836.0" y="-33.0" type="qcurve" smooth="yes"/>
      <point x="830.0" y="-33.0" type="line" smooth="yes"/>
      <point x="477.0" y="-33.0"/>
      <point x="120.0" y="221.0"/>
      <point x="118.0" y="396.0" type="qcurve" smooth="yes"/>
      <point x="118.0" y="476.0" type="line"/>
      <point x="276.0" y="476.0" type="line"/>
      <point x="276.0" y="381.0" type="line" smooth="yes"/>
      <point x="276.0" y="259.0"/>
      <point x="535.0" y="72.0"/>
      <point x="827.0" y="72.0" type="qcurve" smooth="yes"/>
      <point x="835.0" y="72.0" type="line" smooth="yes"/>
      <point x="1122.0" y="72.0"/>
      <point x="1381.0" y="290.0"/>
      <point x="1381.0" y="369.0" type="qcurve" smooth="yes"/>
    </contour>
    <contour>
      <point x="793.0" y="-130.0" type="line"/>
      <point x="793.0" y="803.0" type="line"/>
      <point x="863.0" y="803.0" type="line"/>
      <point x="863.0" y="-130.0" type="line"/>
    </contour>
    <contour>
      <point x="783.0" y="812.0" type="line"/>
      <point x="783.0" y="1593.0" type="line"/>
      <point x="853.0" y="1593.0" type="line"/>
      <point x="853.0" y="812.0" type="line"/>
    </contour>
  </outline>
</glyph>
<glyph name="eight" format="2">
  <advance width="1619.0"/>
  <outline>
    <contour>
      <point x="798.0" y="-25.0" type="line" smooth="yes"/>
      <point x="486.0" y="-25.0"/>
      <point x="59.0" y="222.0"/>
      <point x="59.0" y="407.0" type="qcurve" smooth="yes"/>
      <point x="59.0" y="419.0" type="line" smooth="yes"/>
      <point x="59.0" y="598.0"/>
      <point x="480.0" y="821.0"/>
      <point x="791.0" y="821.0" type="qcurve" smooth="yes"/>
      <point x="802.0" y="821.0" type="line" smooth="yes"/>
      <point x="1122.0" y="821.0"/>
      <point x="1560.0" y="598.0"/>
      <point x="1560.0" y="419.0" type="qcurve" smooth="yes"/>
      <point x="1560.0" y="407.0" type="line" smooth="yes"/>
      <point x="1560.0" y="222.0"/>
      <point x="1119.0" y="-25.0"/>
      <point x="808.0" y="-25.0" type="qcurve" smooth="yes"/>
    </contour>
    <contour>
      <point x="810.0" y="79.0" type="line" smooth="yes"/>
      <point x="1071.0" y="79.0"/>
      <point x="1395.0" y="263.0"/>
      <point x="1395.0" y="407.0" type="qcurve" smooth="yes"/>
      <point x="1395.0" y="428.0" type="line" smooth="yes"/>
      <point x="1395.0" y="573.0"/>
      <point x="1081.0" y="736.0"/>
      <point x="803.0" y="736.0" type="qcurve" smooth="yes"/>
      <point x="790.0" y="736.0" type="line" smooth="yes"/>
      <point x="529.0" y="736.0"/>
      <point x="227.0" y="573.0"/>
      <point x="227.0" y="428.0" type="qcurve" smooth="yes"/>
      <point x="227.0" y="407.0" type="line" smooth="yes"/>
      <point x="227.0" y="263.0"/>
      <point x="542.0" y="79.0"/>
      <point x="797.0" y="79.0" type="qcurve" smooth="yes"/>
    </contour>
    <contour>
      <point x="797.0" y="756.0" type="line" smooth="yes"/>
      <point x="519.0" y="756.0"/>
      <point x="142.0" y="965.0"/>
      <point x="142.0" y="1126.0" type="qcurve" smooth="yes"/>
      <point x="142.0" y="1150.0" type="line" smooth="yes"/>
      <point x="142.0" y="1312.0"/>
      <point x="525.0" y="1523.0"/>
      <point x="791.0" y="1523.0" type="qcurve" smooth="yes"/>
      <point x="801.0" y="1523.0" type="line" smooth="yes"/>
      <point x="1076.0" y="1523.0"/>
      <point x="1474.0" y="1312.0"/>
      <point x="1474.0" y="1150.0" type="qcurve" smooth="yes"/>
      <point x="1474.0" y="1126.0" type="line" smooth="yes"/>
      <point x="1474.0" y="965.0"/>
      <point x="1090.0" y="756.0"/>
      <point x="807.0" y="756.0" type="qcurve" smooth="yes"/>
    </contour>
    <contour>
      <point x="800.0" y="848.0" type="line" smooth="yes"/>
      <point x="1027.0" y="848.0"/>
      <point x="1304.0" y="993.0"/>
      <point x="1304.0" y="1112.0" type="qcurve" smooth="yes"/>
      <point x="1304.0" y="1131.0" type="line" smooth="yes"/>
      <point x="1304.0" y="1250.0"/>
      <point x="1034.0" y="1396.0"/>
      <point x="800.0" y="1396.0" type="qcurve" smooth="yes"/>
      <point x="793.0" y="1396.0" type="line" smooth="yes"/>
      <point x="579.0" y="1396.0"/>
      <point x="314.0" y="1250.0"/>
      <point x="314.0" y="1131.0" type="qcurve" smooth="yes"/>
      <point x="314.0" y="1112.0" type="line" smooth="yes"/>
      <point x="314.0" y="993.0"/>
      <point x="574.0" y="848.0"/>
      <point x="793.0" y="848.0" type="qcurve" smooth="yes"/>
    </contour>
  </outline>
</glyph>
<glyph name="four" format="2">
  <advance width="1517.0"/>
  <outline>
    <contour>
      <point x="946.0" y="0.0" type="line"/>
      <point x="966.0" y="1510.0" type="line"/>
      <point x="1126.0" y="1507.0" type="line"/>
      <point x="1126.0" y="2.0" type="line"/>
    </contour>
    <contour>
      <point x="1453.0" y="535.0" type="line"/>
      <point x="1453.0" y="398.0" type="line"/>
      <point x="64.0" y="398.0" type="line"/>
      <point x="48.0" y="570.0" type="line"/>
      <point x="873.0" y="1471.0" type="line"/>
      <point x="1003.0" y="1417.0" type="line"/>
      <point x="217.0" y="537.0" type="line"/>
    </contour>
  </outline>
</glyph>
<glyph name="g" format="2">
  <advance width="1828.0"/>
  <outline>
    <contour>
      <point x="1477.0" y="541.0" type="qcurve" smooth="yes"/>
      <point x="1477.0" y="506.0" type="line" smooth="yes"/>
      <point x="1477.0" y="285.0"/>
      <point x="1105.0" y="-35.0"/>
      <point x="828.0" y="-35.0" type="qcurve" smooth="yes"/>
      <point x="819.0" y="-35.0" type="line" smooth="yes"/>
      <point x="459.0" y="-35.0"/>
      <point x="102.0" y="277.0"/>
      <point x="102.0" y="526.0" type="qcurve" smooth="yes"/>
      <point x="102.0" y="551.0" type="line" smooth="yes"/>
      <point x="102.0" y="772.0"/>
      <point x="501.0" y="1083.0"/>
      <point x="834.0" y="1083.0" type="qcurve" smooth="yes"/>
      <point x="844.0" y="1083.0" type="line" smooth="yes"/>
      <point x="1124.0" y="1083.0"/>
      <point x="1477.0" y="810.0"/>
    </contour>
    <contour>
      <point x="1384.0" y="537.0" type="line" smooth="yes"/>
      <point x="1384.0" y="790.0"/>
      <point x="1060.0" y="978.0"/>
      <point x="832.0" y="978.0" type="qcurve" smooth="yes"/>
      <point x="820.0" y="978.0" type="line" smooth="yes"/>
      <point x="586.0" y="978.0"/>
      <point x="276.0" y="747.0"/>
      <point x="276.0" y="537.0" type="qcurve" smooth="yes"/>
      <point x="276.0" y="517.0" type="line" smooth="yes"/>
      <point x="276.0" y="288.0"/>
      <point x="599.0" y="65.0"/>
      <point x="818.0" y="65.0" type="qcurve" smooth="yes"/>
      <point x="830.0" y="65.0" type="line" smooth="yes"/>
      <point x="1062.0" y="65.0"/>
      <point x="1384.0" y="279.0"/>
      <point x="1384.0" y="507.0" type="qcurve" smooth="yes"/>
    </contour>
    <contour>
      <point x="267.0" y="-324.0" type="line"/>
      <point x="342.0" y="-337.0"/>
      <point x="568.0" y="-375.0"/>
      <point x="694.0" y="-375.0" type="qcurve" smooth="yes"/>
      <point x="1028.0" y="-375.0"/>
      <point x="1422.0" y="-106.0"/>
      <point x="1422.0" y="140.0" type="qcurve" smooth="yes"/>
      <point x="1422.0" y="1040.0" type="line"/>
      <point x="1583.0" y="1040.0" type="line"/>
      <point x="1583.0" y="160.0" type="line" smooth="yes"/>
      <point x="1583.0" y="-243.0"/>
      <point x="1088.0" y="-490.0"/>
      <point x="721.0" y="-490.0" type="qcurve" smooth="yes"/>
      <point x="541.0" y="-490.0"/>
      <point x="339.0" y="-457.0"/>
      <point x="265.0" y="-441.0" type="qcurve"/>
    </contour>
  </outline>
</glyph>
<glyph name="greater" format="2">
  <advance width="1920.0"/>
  <outline>
    <contour>
      <point x="1672.0" y="799.0" type="line"/>
      <point x="1672.0" y="669.0" type="line"/>
      <point x="312.0" y="194.0" type="line"/>
      <point x="307.0" y="360.0" type="line"/>
      <point x="1364.0" y="717.0" type="line"/>
      <point x="307.0" y="1087.0" type="line"/>
      <point x="312.0" y="1270.0" type="line"/>
    </contour>
  </outline>
</glyph>
<glyph name="hyphen" format="2">
  <advance width="1572.0"/>
  <outline>
    <contour>
      <point x="1306.0" y="697.0" type="line"/>
      <point x="266.0" y="697.0" type="line"/>
      <point x="266.0" y="865.0" type="line"/>
      <point x="1306.0" y="865.0" type="line"/>
    </contour>
  </outline>
</glyph>
<glyph name="k" format="2">
  <advance width="1529.0"/>
  <outline>
    <contour>
      <point x="223.0" y="0.0" type="line"/>
      <point x="223.0" y="1540.0" type="line"/>
      <point x="403.0" y="1540.0" type="line"/>
      <point x="403.0" y="0.0" type="line"/>
    </contour>
    <contour>
      <point x="878.0" y="634.0" type="line"/>
      <point x="385.0" y="273.0" type="line"/>
      <point x="385.0" y="393.0" type="line"/>
      <point x="694.0" y="616.0" type="line"/>
      <point x="1318.0" y="1040.0" type="line"/>
      <point x="1539.0" y="1040.0" type="line"/>
      <point x="1003.0" y="672.0" type="line"/>
    </contour>
    <contour>
      <point x="978.0" y="735.0" type="line"/>
      <point x="1600.0" y="0.0" type="line"/>
      <point x="1381.0" y="0.0" type="line"/>
      <point x="835.0" y="649.0" type="line"/>
    </contour>
  </outline>
</glyph>
<glyph name="n" format="2">
  <advance width="1650.0"/>
  <outline>
    <contour>
      <point x="245.0" y="0.0" type="line"/>
      <point x="245.0" y="1040.0" type="line"/>
      <point x="415.0" y="1040.0" type="line"/>
      <point x="425.0" y="0.0" type="line"/>
    </contour>
    <contour>
      <point x="287.0" y="666.0" type="line"/>
      <point x="328.0" y="820.0"/>
      <point x="718.0" y="1080.0"/>
      <point x="948.0" y="1080.0" type="qcurve" smooth="yes"/>
      <point x="1176.0" y="1080.0"/>
      <point x="1445.0" y="852.0"/>
      <point x="1445.0" y="645.0" type="qcurve" smooth="yes"/>
      <point x="1444.0" y="0.0" type="line"/>
      <point x="1263.0" y="0.0" type="line"/>
      <point x="1263.0" y="660.0" type="line" smooth="yes"/>
      <point x="1263.0" y="818.0"/>
      <point x="1020.0" y="957.0"/>
      <point x="859.0" y="957.0" type="qcurve" smooth="yes"/>
      <point x="727.0" y="957.0"/>
      <point x="388.0" y="743.0"/>
      <point x="313.0" y="594.0" type="qcurve"/>
    </contour>
  </outline>
</glyph>
<glyph name="nine" format="2">
  <advance width="1526.0"/>
  <outline>
    <contour>
      <point x="1225.0" y="825.0" type="qcurve"/>
      <point x="1225.0" y="988.0" type="line" smooth="yes"/>
      <point x="1225.0" y="1178.0"/>
      <point x="964.0" y="1397.0"/>
      <point x="705.0" y="1397.0" type="qcurve" smooth="yes"/>
      <point x="696.0" y="1397.0" type="line" smooth="yes"/>
      <point x="479.0" y="1397.0"/>
      <point x="210.0" y="1169.0"/>
      <point x="210.0" y="1002.0" type="qcurve" smooth="yes"/>
      <point x="210.0" y="982.0" type="line" smooth="yes"/>
      <point x="210.0" y="825.0"/>
      <point x="495.0" y="636.0"/>
      <point x="714.0" y="636.0" type="qcurve" smooth="yes"/>
      <point x="724.0" y="636.0" type="line" smooth="yes"/>
      <point x="928.0" y="636.0"/>
      <point x="1276.0" y="860.0"/>
      <point x="1226.0" y="960.0" type="qcurve" smooth="yes"/>
      <point x="1225.0" y="998.0" type="line"/>
      <point x="1290.0" y="992.0" type="line"/>
      <point x="1290.0" y="958.0" type="line" smooth="yes"/>
      <point x="1290.0" y="750.0"/>
      <point x="921.0" y="521.0"/>
      <point x="665.0" y="521.0" type="qcurve" smooth="yes"/>
      <point x="658.0" y="521.0" type="line" smooth="yes"/>
      <point x="333.0" y="521.0"/>
      <point x="44.0" y="784.0"/>
      <point x="44.0" y="1000.0" type="qcurve" smooth="yes"/>
      <point x="44.0" y="1013.0" type="line" smooth="yes"/>
      <point x="44.0" y="1244.0"/>
      <point x="400.0" y="1524.0"/>
      <point x="701.0" y="1524.0" type="qcurve" smooth="yes"/>
      <point x="710.0" y="1524.0" type="line" smooth="yes"/>
      <point x="1046.0" y="1524.0"/>
      <point x="1379.0" y="1226.0"/>
      <point x="1387.0" y="924.0" type="qcurve" smooth="yes"/>
      <point x="1389.0" y="901.0" type="line" smooth="yes"/>
      <point x="1401.0" y="513.0"/>
      <point x="691.0" y="-5.0"/>
      <point x="328.0" y="-14.0" type="qcurve" smooth="yes"/>
      <point x="252.0" y="-14.0" type="line"/>
      <point x="252.0" y="162.0" type="line"/>
      <point x="303.0" y="162.0" type="line" smooth="yes"/>
      <point x="680.0" y="162.0"/>
      <point x="1244.0" y="537.0"/>
    </contour>
  </outline>
</glyph>
<glyph name="period" format="2">
  <advance width="1007.0"/>
  <outline>
    <contour>
      <point x="503.0" y="-10.0" type="line" smooth="yes"/>
      <point x="553.0" y="-10.0"/>
      <point x="628.0" y="84.0"/>
      <point x="628.0" y="162.0" type="qcurve" smooth="yes"/>
      <point x="628.0" y="192.0" type="line" smooth="yes"/>
      <point x="628.0" y="273.0"/>
      <point x="556.0" y="365.0"/>
      <point x="503.0" y="365.0" type="qcurve" smooth="yes"/>
      <point x="501.0" y="365.0" type="line" smooth="yes"/>
      <point x="452.0" y="365.0"/>
      <point x="379.0" y="273.0"/>
      <point x="379.0" y="192.0" type="qcurve" smooth="yes"/>
      <point x="379.0" y="162.0" type="line" smooth="yes"/>
      <point x="379.0" y="79.0"/>
      <point x="450.0" y="-10.0"/>
      <point x="501.0" y="-10.0" type="qcurve" smooth="yes"/>
    </contour>
  </outline>
</glyph>
<glyph name="plus" format="2">
  <advance width="1920.0"/>
  <outline>
    <contour>
      <point x="1690.0" y="680.0" type="line"/>
      <point x="230.0" y="680.0" type="line"/>
      <point x="230.0" y="845.0" type="line"/>
      <point x="1690.0" y="845.0" type="line"/>
    </contour>
    <contour>
      <point x="1052.0" y="1442.0" type="line"/>
      <point x="1052.0" y="82.0" type="line"/>
      <point x="867.0" y="82.0" type="line"/>
      <point x="867.0" y="1442.0" type="line"/>
    </contour>
  </outline>
</glyph>
<glyph name="r" format="2">
  <advance width="1176.0"/>
  <outline>
    <contour>
      <point x="245.0" y="0.0" type="line"/>
      <point x="245.0" y="1040.0" type="line"/>
      <point x="426.0" y="1040.0" type="line"/>
      <point x="426.0" y="0.0" type="line"/>
    </contour>
    <contour>
      <point x="394.0" y="836.0" type="line"/>
      <point x="484.0" y="945.0"/>
      <point x="868.0" y="1082.0"/>
      <point x="1088.0" y="1082.0" type="qcurve" smooth="yes"/>
      <point x="1107.0" y="1082.0"/>
      <point x="1147.0" y="1081.0"/>
      <point x="1166.0" y="1080.0" type="qcurve"/>
      <point x="1166.0" y="926.0" type="line"/>
      <point x="1148.0" y="927.0"/>
      <point x="1109.0" y="929.0"/>
      <point x="1088.0" y="929.0" type="qcurve" smooth="yes"/>
      <point x="866.0" y="929.0"/>
      <point x="525.0" y="821.0"/>
      <point x="428.0" y="717.0" type="qcurve"/>
    </contour>
  </outline>
</glyph>
<glyph name="semicolon" format="2">
  <advance width="1007.0"/>
  <outline>
    <contour>
      <point x="486.0" y="643.0" type="line" smooth="yes"/>
      <point x="532.0" y="643.0"/>
      <point x="596.0" y="733.0"/>
      <point x="596.0" y="800.0" type="qcurve" smooth="yes"/>
      <point x="596.0" y="832.0" type="line" smooth="yes"/>
      <point x="596.0" y="899.0"/>
      <point x="535.0" y="991.0"/>
      <point x="487.0" y="991.0" type="qcurve" smooth="yes"/>
      <point x="483.0" y="991.0" type="line" smooth="yes"/>
      <point x="439.0" y="991.0"/>
      <point x="378.0" y="899.0"/>
      <point x="378.0" y="832.0" type="qcurve" smooth="yes"/>
      <point x="378.0" y="800.0" type="line" smooth="yes"/>
      <point x="378.0" y="732.0"/>
      <point x="437.0" y="643.0"/>
      <point x="483.0" y="643.0" type="qcurve" smooth="yes"/>
    </contour>
    <contour>
      <point x="117.0" y="-138.0" type="line"/>
      <point x="361.0" y="239.0" type="line" smooth="yes"/>
      <point x="393.0" y="295.0"/>
      <point x="485.0" y="376.0"/>
      <point x="506.0" y="376.0" type="qcurve" smooth="yes"/>
      <point x="506.0" y="376.0" type="line" smooth="yes"/>
      <point x="563.0" y="376.0"/>
      <point x="626.0" y="295.0"/>
      <point x="599.0" y="220.0" type="qcurve" smooth="yes"/>
      <point x="594.0" y="206.0" type="line" smooth="yes"/>
      <point x="577.0" y="149.0"/>
      <point x="283.0" y="-119.0"/>
      <point x="178.0" y="-197.0" type="qcurve"/>
    </contour>
  </outline>
</glyph>
<glyph name="six" format="2">
  <advance width="1526.0"/>
  <outline>
    <contour>
      <point x="301.0" y="652.0" type="qcurve"/>
      <point x="301.0" y="489.0" type="line" smooth="yes"/>
      <point x="301.0" y="299.0"/>
      <point x="560.0" y="88.0"/>
      <point x="819.0" y="88.0" type="qcurve" smooth="yes"/>
      <point x="828.0" y="88.0" type="line" smooth="yes"/>
      <point x="1045.0" y="88.0"/>
      <point x="1316.0" y="299.0"/>
      <point x="1316.0" y="455.0" type="qcurve" smooth="yes"/>
      <point x="1316.0" y="485.0" type="line" smooth="yes"/>
      <point x="1316.0" y="652.0"/>
      <point x="1041.0" y="849.0"/>
      <point x="812.0" y="849.0" type="qcurve" smooth="yes"/>
      <point x="802.0" y="849.0" type="line" smooth="yes"/>
      <point x="598.0" y="849.0"/>
      <point x="250.0" y="617.0"/>
      <point x="300.0" y="517.0" type="qcurve" smooth="yes"/>
      <point x="301.0" y="479.0" type="line"/>
      <point x="236.0" y="485.0" type="line"/>
      <point x="236.0" y="519.0" type="line" smooth="yes"/>
      <point x="236.0" y="727.0"/>
      <point x="605.0" y="958.0"/>
      <point x="861.0" y="958.0" type="qcurve" smooth="yes"/>
      <point x="868.0" y="958.0" type="line" smooth="yes"/>
      <point x="1183.0" y="958.0"/>
      <point x="1482.0" y="715.0"/>
      <point x="1482.0" y="489.0" type="qcurve" smooth="yes"/>
      <point x="1482.0" y="454.0" type="line" smooth="yes"/>
      <point x="1482.0" y="245.0"/>
      <point x="1126.0" y="-25.0"/>
      <point x="825.0" y="-25.0" type="qcurve" smooth="yes"/>
      <point x="816.0" y="-25.0" type="line" smooth="yes"/>
      <point x="480.0" y="-25.0"/>
      <point x="147.0" y="273.0"/>
      <point x="139.0" y="575.0" type="qcurve" smooth="yes"/>
      <point x="137.0" y="598.0" type="line" smooth="yes"/>
      <point x="125.0" y="1020.0"/>
      <point x="779.0" y="1501.0"/>
      <point x="1198.0" y="1510.0" type="qcurve" smooth="yes"/>
      <point x="1274.0" y="1510.0" type="line"/>
      <point x="1274.0" y="1358.0" type="line"/>
      <point x="1223.0" y="1358.0" type="line" smooth="yes"/>
      <point x="802.0" y="1358.0"/>
      <point x="280.0" y="986.0"/>
    </contour>
  </outline>
</glyph>
<glyph name="u" format="2">
  <advance width="1650.0"/>
  <outline>
    <contour>
      <point x="1402.0" y="1036.0" type="line"/>
      <point x="1402.0" y="-4.0" type="line"/>
      <point x="1232.0" y="-4.0" type="line"/>
      <point x="1222.0" y="1036.0" type="line"/>
    </contour>
    <contour>
      <point x="1360.0" y="330.0" type="line"/>
      <point x="1311.0" y="176.0"/>
      <point x="924.0" y="-44.0"/>
      <point x="694.0" y="-44.0" type="qcurve" smooth="yes"/>
      <point x="466.0" y="-44.0"/>
      <point x="212.0" y="184.0"/>
      <point x="212.0" y="391.0" type="qcurve" smooth="yes"/>
      <point x="213.0" y="1036.0" type="line"/>
      <point x="394.0" y="1036.0" type="line"/>
      <point x="394.0" y="376.0" type="line" smooth="yes"/>
      <point x="394.0" y="211.0"/>
      <point x="632.0" y="79.0"/>
      <point x="793.0" y="79.0" type="qcurve" smooth="yes"/>
      <point x="925.0" y="79.0"/>
      <point x="1263.0" y="251.0"/>
      <point x="1334.0" y="402.0" type="qcurve"/>
    </contour>
  </outline>
</glyph>
<glyph name="underscore" format="2">
  <advance width="1832.0"/>
  <outline>
    <contour>
      <point x="1832.0" y="-500.0" type="line"/>
      <point x="0.0" y="-500.0" type="line"/>
      <point x="0.0" y="-340.0" type="line"/>
      <point x="1832.0" y="-340.0" type="line"/>
    </contour>
  </outline>
</glyph>
<glyph name="x" format="2">
  <advance width="1334.0"/>
  <outline>
    <contour>
      <point x="22.0" y="1.0" type="line"/>
      <point x="1120.0" y="1041.0" type="line"/>
      <point x="1314.0" y="1041.0" type="line"/>
      <point x="216.0" y="1.0" type="line"/>
    </contour>
    <contour>
      <point x="1138.0" y="1.0" type="line"/>
      <point x="31.0" y="1041.0" type="line"/>
      <point x="237.0" y="1041.0" type="line"/>
      <point x="1343.0" y="1.0" type="line"/>
    </contour>
  </outline>
</glyph>
